<svg id="Grupo_902071" data-name="Grupo 902071" xmlns="http://www.w3.org/2000/svg" xmlns:xlink="http://www.w3.org/1999/xlink" width="925" height="367" viewBox="0 0 925 367">
  <defs>
    <linearGradient id="linear-gradient" x1="0.401" y1="0.54" x2="1.264" y2="1.286" gradientUnits="objectBoundingBox">
      <stop offset="0" stop-color="#3c0061"/>
      <stop offset="1" stop-color="#b3009d"/>
    </linearGradient>
    <clipPath id="clip-path">
      <rect id="Rectángulo_336759" data-name="Rectángulo 336759" width="387.99" height="304.6" fill="#ffd947"/>
    </clipPath>
    <clipPath id="clip-path-2">
      <rect id="Rectángulo_336759-2" data-name="Rectángulo 336759" width="387.99" height="199.037" fill="#ffd947"/>
    </clipPath>
  </defs>
  <rect id="Rectángulo_336758" data-name="Rectángulo 336758" width="925" height="367" rx="26" fill="url(#linear-gradient)"/>
  <g id="Grupo_902004" data-name="Grupo 902004" transform="translate(16 33.174)" opacity="0.528">
    <g id="Grupo_902002" data-name="Grupo 902002" transform="translate(0 304.6) rotate(-90)">
      <g id="Grupo_902001" data-name="Grupo 902001" transform="translate(304.6) rotate(90)" clip-path="url(#clip-path)">
        <path id="Trazado_629969" data-name="Trazado 629969" d="M71.3,4.164V16.65H0V27.264H41.871v-1.4H1.639V18.049h71.3V4.164a2.2,2.2,0,0,0,1.7-2.018,2.546,2.546,0,0,0-5.029,0A2.2,2.2,0,0,0,71.3,4.164" transform="translate(25.432 0)" fill="#ffd947"/>
        <path id="Trazado_629970" data-name="Trazado 629970" d="M5.029,2.145A2.352,2.352,0,0,0,2.515,0,2.352,2.352,0,0,0,0,2.145,2.178,2.178,0,0,0,1.593,4.137V31.181L27.5,49.988H62.909v-1.4H28.619V14.3a2.136,2.136,0,0,0,1.394-1.911A2.351,2.351,0,0,0,27.5,10.249a2.352,2.352,0,0,0-2.515,2.144,2.26,2.26,0,0,0,2,2.1V47.775L15.656,39.554V9.378A2.2,2.2,0,0,0,17.35,7.36a2.351,2.351,0,0,0-2.514-2.145A2.352,2.352,0,0,0,12.322,7.36a2.2,2.2,0,0,0,1.7,2.018V38.365L3.233,30.535V4.19a2.216,2.216,0,0,0,1.8-2.045" transform="translate(6.014 58.83)" fill="#ffd947"/>
        <path id="Trazado_629971" data-name="Trazado 629971" d="M4.881,2.844h58.67v-1.4H4.881A2.507,2.507,0,0,0,2.515,0,2.353,2.353,0,0,0,0,2.145,2.352,2.352,0,0,0,2.515,4.29,2.506,2.506,0,0,0,4.881,2.844" transform="translate(3.752 116.571)" fill="#ffd947"/>
        <path id="Trazado_629972" data-name="Trazado 629972" d="M3.575,113.157V37.835L43.621,1.4H62.712V0h-19.8L1.936,37.282v75.732A2.246,2.246,0,0,0,0,115.1a2.353,2.353,0,0,0,2.515,2.145A2.352,2.352,0,0,0,5.029,115.1a2.15,2.15,0,0,0-1.454-1.938" transform="translate(6.751 128.154)" fill="#ffd947"/>
        <path id="Trazado_629973" data-name="Trazado 629973" d="M3.334,102.509V30.457L34.206,1.4H53.289V0H33.48L1.7,29.918v72.591a2.049,2.049,0,0,0,0,4.037v.126H3.334v-.126a2.049,2.049,0,0,0,0-4.037" transform="translate(16.175 139.212)" fill="#ffd947"/>
        <path id="Trazado_629974" data-name="Trazado 629974" d="M44.306,108.425V60.114H34.967a2.63,2.63,0,0,0-4.88,0H15.625V1.4H55.779V0H13.987V61.512H30.253a2.7,2.7,0,0,0,4.548,0h7.867V89.473H1.695V125.2A2.2,2.2,0,0,0,0,127.22a2.351,2.351,0,0,0,2.514,2.145,2.352,2.352,0,0,0,2.515-2.145,2.2,2.2,0,0,0-1.7-2.019V90.871H42.668v17.554a2.2,2.2,0,0,0-1.695,2.018,2.546,2.546,0,0,0,5.028,0,2.2,2.2,0,0,0-1.695-2.018" transform="translate(26.498 175.236)" fill="#ffd947"/>
        <path id="Trazado_629975" data-name="Trazado 629975" d="M3.333,34.33V0H1.695V34.33A2.2,2.2,0,0,0,0,36.349a2.352,2.352,0,0,0,2.514,2.145,2.352,2.352,0,0,0,2.514-2.145A2.2,2.2,0,0,0,3.333,34.33" transform="translate(206.779 205.992)" fill="#ffd947"/>
        <path id="Trazado_629976" data-name="Trazado 629976" d="M2.861,34.234V0H1.222V34.518A2.1,2.1,0,0,0,0,36.349a2.353,2.353,0,0,0,2.515,2.145,2.352,2.352,0,0,0,2.514-2.145,2.285,2.285,0,0,0-2.168-2.115" transform="translate(222.002 205.992)" fill="#ffd947"/>
        <path id="Trazado_629977" data-name="Trazado 629977" d="M383.019,55.491a2.453,2.453,0,0,0,2.457,1.7,2.172,2.172,0,1,0,0-4.289,2.575,2.575,0,0,0-2.245,1.2H356.87L338.438,69.815h-.49v.418L320.41,85.194H295.336v-71.3h59v13.98h28.725a2.475,2.475,0,0,0,2.414,1.577,2.351,2.351,0,0,0,2.514-2.145,2.351,2.351,0,0,0-2.514-2.145,2.551,2.551,0,0,0-2.319,1.315H355.976V12.5H293.7v7.689h-25.4V4.165a2.2,2.2,0,0,0,1.7-2.02,2.546,2.546,0,0,0-5.029,0,2.195,2.195,0,0,0,1.687,2.016V21.584H293.7V86.592h25.074l-19.677,16.785H180.941L157.188,83.114H50.3V30.128H13.568V9.87H69.251a2.566,2.566,0,0,0,2.275,1.243,2.351,2.351,0,0,0,2.514-2.145,2.351,2.351,0,0,0-2.514-2.145,2.462,2.462,0,0,0-2.44,1.648H11.929V31.526h36.73v24.4H39.014l-15.124-12.9H4.959a2.458,2.458,0,0,0-2.444-1.66,2.172,2.172,0,1,0,0,4.29,2.569,2.569,0,0,0,2.267-1.232h18.43l15.124,12.9H48.659V84.512h107.85l23.754,20.263H365.809v29.35H330.273a2.61,2.61,0,0,0-2.159-1.062,2.172,2.172,0,1,0,0,4.29,2.413,2.413,0,0,0,2.477-1.83h35.218V153H330.48a2.506,2.506,0,0,0-2.366-1.446,2.172,2.172,0,1,0,0,4.289,2.506,2.506,0,0,0,2.366-1.446h35.328V178.7a2.437,2.437,0,0,0-2.213,1.557H330.572V215.21h1.639V181.657H363.69a2.552,2.552,0,0,0,2.319,1.317,2.351,2.351,0,0,0,2.514-2.145,2.07,2.07,0,0,0-1.076-1.756v-75.7H301.411l19.677-16.785h62.021a2.509,2.509,0,0,0,2.367,1.446,2.172,2.172,0,1,0,0-4.29,2.509,2.509,0,0,0-2.367,1.446H322.727l16.39-13.98h44.042a2.552,2.552,0,0,0,2.318,1.313,2.172,2.172,0,1,0,0-4.29,2.475,2.475,0,0,0-2.415,1.578H340.755l16.793-14.325Z" transform="translate(0 1.267)" fill="#ffd947"/>
        <path id="Trazado_629978" data-name="Trazado 629978" d="M20.543,32.155H1.7V53.9A2.2,2.2,0,0,0,0,55.921a2.352,2.352,0,0,0,2.515,2.145,2.351,2.351,0,0,0,2.514-2.145A2.2,2.2,0,0,0,3.334,53.9V33.553H22.182V0H20.543Z" transform="translate(98.611 204.594)" fill="#ffd947"/>
        <path id="Trazado_629979" data-name="Trazado 629979" d="M5.736,0C2.573,0,0,2.195,0,4.894S2.573,9.786,5.736,9.786s5.736-2.2,5.736-4.893S8.9,0,5.736,0m0,8.388c-2.26,0-4.1-1.568-4.1-3.495s1.838-3.5,4.1-3.5,4.1,1.568,4.1,3.5S8,8.388,5.736,8.388" transform="translate(372.365 103.937)" fill="#ffd947"/>
        <path id="Trazado_629980" data-name="Trazado 629980" d="M0,4.893c0,2.7,2.573,4.893,5.737,4.893s5.736-2.195,5.736-4.893S8.9,0,5.737,0,0,2.195,0,4.893m9.834,0c0,1.927-1.838,3.495-4.1,3.495s-4.1-1.567-4.1-3.495S3.477,1.4,5.737,1.4s4.1,1.567,4.1,3.495" transform="translate(42.124 155.664)" fill="#ffd947"/>
        <path id="Trazado_629981" data-name="Trazado 629981" d="M5.736,9.786c3.163,0,5.736-2.2,5.736-4.894S8.9,0,5.736,0,0,2.2,0,4.893,2.573,9.786,5.736,9.786m0-8.388c2.259,0,4.1,1.568,4.1,3.495s-1.838,3.495-4.1,3.495-4.1-1.567-4.1-3.495S3.476,1.4,5.736,1.4" transform="translate(122.431 2.581)" fill="#ffd947"/>
        <path id="Trazado_629982" data-name="Trazado 629982" d="M5.736,9.786c3.163,0,5.736-2.2,5.736-4.894S8.9,0,5.736,0,0,2.2,0,4.893,2.573,9.786,5.736,9.786m0-8.388c2.259,0,4.1,1.568,4.1,3.495S8,8.388,5.736,8.388s-4.1-1.567-4.1-3.495S3.476,1.4,5.736,1.4" transform="translate(155.209 2.581)" fill="#ffd947"/>
        <path id="Trazado_629983" data-name="Trazado 629983" d="M5.736,0C2.573,0,0,2.2,0,4.893S2.573,9.786,5.736,9.786s5.736-2.195,5.736-4.893S8.9,0,5.736,0m0,8.388c-2.26,0-4.1-1.568-4.1-3.495S3.476,1.4,5.736,1.4s4.1,1.567,4.1,3.495-1.838,3.495-4.1,3.495" transform="translate(43.763 294.067)" fill="#ffd947"/>
        <path id="Trazado_629984" data-name="Trazado 629984" d="M5.736,0C2.573,0,0,2.2,0,4.893S2.573,9.786,5.736,9.786s5.736-2.2,5.736-4.893S8.9,0,5.736,0m0,8.388c-2.26,0-4.1-1.568-4.1-3.495s1.838-3.5,4.1-3.5,4.1,1.568,4.1,3.5-1.838,3.495-4.1,3.495" transform="translate(80.639 234.651)" fill="#ffd947"/>
        <path id="Trazado_629985" data-name="Trazado 629985" d="M5.736,0C2.573,0,0,2.2,0,4.894S2.573,9.786,5.736,9.786s5.736-2.195,5.736-4.893S8.9,0,5.736,0m0,8.388c-2.26,0-4.1-1.568-4.1-3.495s1.838-3.5,4.1-3.5,4.1,1.568,4.1,3.5S8,8.388,5.736,8.388" transform="translate(372.365 165.45)" fill="#ffd947"/>
      </g>
    </g>
    <g id="Grupo_902003" data-name="Grupo 902003" transform="translate(504.906 273.824) rotate(-90)">
      <g id="Grupo_902001-2" data-name="Grupo 902001" transform="translate(0 387.99) rotate(-90)" clip-path="url(#clip-path-2)">
        <path id="Trazado_629969-2" data-name="Trazado 629969" d="M71.3,15.095V6.935H0V0H41.871V.913H1.639V6.021h71.3v9.073c.984.19,1.7.706,1.7,1.319,0,.774-1.126,1.4-2.515,1.4s-2.514-.628-2.514-1.4c0-.613.71-1.129,1.695-1.319" transform="translate(25.432 181.222)" fill="#ffd947"/>
        <path id="Trazado_629970-2" data-name="Trazado 629970" d="M5.029,31.262c0,.774-1.126,1.4-2.514,1.4S0,32.036,0,31.262c0-.592.661-1.1,1.593-1.3V12.289L27.5,0H62.909V.914H28.619v22.4c.823.23,1.394.7,1.394,1.249,0,.774-1.126,1.4-2.514,1.4s-2.515-.627-2.515-1.4c0-.675.857-1.238,2-1.371V1.446L15.656,6.818V26.536c.984.19,1.695.706,1.695,1.319,0,.774-1.126,1.4-2.514,1.4s-2.515-.627-2.515-1.4c0-.613.711-1.129,1.7-1.319V7.595L3.233,12.711V29.926c1.036.173,1.8.7,1.8,1.336" transform="translate(6.014 127.931)" fill="#ffd947"/>
        <path id="Trazado_629971-2" data-name="Trazado 629971" d="M4.881.945h58.67v.913H4.881A2.83,2.83,0,0,1,2.515,2.8C1.126,2.8,0,2.175,0,1.4S1.126,0,2.515,0A2.83,2.83,0,0,1,4.881.945" transform="translate(3.752 120.062)" fill="#ffd947"/>
        <path id="Trazado_629972-2" data-name="Trazado 629972" d="M3.575,2.668V51.886L43.621,75.7H62.712v.913h-19.8L1.936,52.248V2.762C.828,2.616,0,2.064,0,1.4,0,.628,1.126,0,2.515,0S5.029.628,5.029,1.4c0,.562-.6,1.043-1.454,1.267" transform="translate(6.751 38.687)" fill="#ffd947"/>
        <path id="Trazado_629973-2" data-name="Trazado 629973" d="M3.334,2.721V49.8L34.206,68.79H53.289V69.7H33.48L1.7,50.154V2.721C.711,2.531,0,2.015,0,1.4S.711.273,1.7.083V0H3.334V.083C4.319.273,5.029.789,5.029,1.4s-.71,1.129-1.695,1.319" transform="translate(16.175 38.367)" fill="#ffd947"/>
        <path id="Trazado_629974-2" data-name="Trazado 629974" d="M44.306,13.683V45.25H34.967a2.643,2.643,0,0,1-2.44,1.077,2.642,2.642,0,0,1-2.44-1.077H15.625V83.618H55.779v.913H13.987V44.337H30.253a3.04,3.04,0,0,1,2.274-.812,3.04,3.04,0,0,1,2.274.812h7.867V26.066H1.695V2.721C.711,2.53,0,2.015,0,1.4,0,.627,1.126,0,2.514,0S5.029.627,5.029,1.4c0,.613-.711,1.129-1.7,1.319V25.153H42.668V13.683c-.984-.19-1.695-.706-1.695-1.319,0-.774,1.126-1.4,2.514-1.4S46,11.59,46,12.364c0,.613-.71,1.129-1.695,1.319" transform="translate(26.498 0)" fill="#ffd947"/>
        <path id="Trazado_629975-2" data-name="Trazado 629975" d="M3.333,2.721V25.153H1.695V2.721C.71,2.531,0,2.015,0,1.4,0,.628,1.126,0,2.514,0S5.028.628,5.028,1.4c0,.613-.711,1.129-1.695,1.319" transform="translate(206.779 39.281)" fill="#ffd947"/>
        <path id="Trazado_629976-2" data-name="Trazado 629976" d="M2.861,2.784v22.37H1.222V2.6C.493,2.352,0,1.911,0,1.4,0,.628,1.126,0,2.515,0S5.029.628,5.029,1.4c0,.708-.945,1.287-2.168,1.382" transform="translate(222.002 39.281)" fill="#ffd947"/>
        <path id="Trazado_629977-2" data-name="Trazado 629977" d="M383.019,104.366a2.606,2.606,0,0,1,2.457-1.108c1.389,0,2.514.627,2.514,1.4s-1.125,1.4-2.514,1.4a3.088,3.088,0,0,1-2.245-.781H356.87L338.438,95.006h-.49v-.273L320.41,84.957H295.336v46.59h59v-9.135h28.725a2.7,2.7,0,0,1,2.414-1.03c1.389,0,2.514.627,2.514,1.4s-1.125,1.4-2.514,1.4a2.979,2.979,0,0,1-2.319-.859H355.976v9.135H293.7v-5.025h-25.4V137.9c.988.189,1.7.706,1.7,1.32,0,.774-1.126,1.4-2.515,1.4s-2.514-.627-2.514-1.4c0-.611.707-1.126,1.687-1.317V126.522H293.7V84.043h25.074L299.094,73.076H180.941L157.188,86.316H50.3v34.623H13.568v13.237H69.251a3.046,3.046,0,0,1,2.275-.812c1.389,0,2.514.627,2.514,1.4s-1.126,1.4-2.514,1.4a2.645,2.645,0,0,1-2.44-1.077H11.929V120.026h36.73V104.079H39.014l-15.124,8.43H4.959a2.633,2.633,0,0,1-2.444,1.085c-1.389,0-2.515-.627-2.515-1.4s1.126-1.4,2.515-1.4a3.056,3.056,0,0,1,2.267.805h18.43l15.124-8.43H48.659V85.4h107.85l23.754-13.241H365.809V52.984H330.273a3.229,3.229,0,0,1-2.159.694c-1.389,0-2.515-.627-2.515-1.4s1.126-1.4,2.515-1.4c1.262,0,2.3.52,2.477,1.2h35.218V40.652H330.48a2.83,2.83,0,0,1-2.366.945c-1.389,0-2.515-.627-2.515-1.4s1.126-1.4,2.515-1.4a2.83,2.83,0,0,1,2.366.945h35.328V23.856a2.593,2.593,0,0,1-2.213-1.018H330.572V0h1.639V21.925H363.69a2.978,2.978,0,0,1,2.319-.861c1.389,0,2.514.627,2.514,1.4,0,.475-.426.894-1.076,1.147V73.076H301.411l19.677,10.968h62.021a2.834,2.834,0,0,1,2.367-.945c1.389,0,2.514.627,2.514,1.4s-1.125,1.4-2.514,1.4a2.833,2.833,0,0,1-2.367-.945H322.727l16.39,9.135h44.042a2.981,2.981,0,0,1,2.318-.858c1.389,0,2.514.627,2.514,1.4s-1.125,1.4-2.514,1.4a2.7,2.7,0,0,1-2.415-1.031H340.755l16.793,9.36Z" transform="translate(0 57.583)" fill="#ffd947"/>
        <path id="Trazado_629978-2" data-name="Trazado 629978" d="M20.543,16.931H1.7V2.72C.711,2.53,0,2.014,0,1.4,0,.627,1.126,0,2.515,0S5.029.627,5.029,1.4c0,.613-.711,1.129-1.695,1.319v13.3H22.182V37.942H20.543Z" transform="translate(98.611 27.406)" fill="#ffd947"/>
        <path id="Trazado_629979-2" data-name="Trazado 629979" d="M5.736,6.395C2.573,6.395,0,4.96,0,3.2S2.573,0,5.736,0s5.736,1.434,5.736,3.2-2.573,3.2-5.736,3.2m0-5.481c-2.26,0-4.1,1.025-4.1,2.284s1.838,2.284,4.1,2.284,4.1-1.025,4.1-2.284S8,.913,5.736.913" transform="translate(372.365 124.726)" fill="#ffd947"/>
        <path id="Trazado_629980-2" data-name="Trazado 629980" d="M0,3.2C0,1.434,2.573,0,5.737,0s5.736,1.434,5.736,3.2-2.573,3.2-5.736,3.2S0,4.96,0,3.2m9.834,0C9.834,1.938,8,.913,5.737.913s-4.1,1.024-4.1,2.284,1.838,2.284,4.1,2.284,4.1-1.024,4.1-2.284" transform="translate(42.124 90.926)" fill="#ffd947"/>
        <path id="Trazado_629981-2" data-name="Trazado 629981" d="M5.736,0C8.9,0,11.472,1.434,11.472,3.2s-2.573,3.2-5.736,3.2S0,4.96,0,3.2,2.573,0,5.736,0m0,5.481c2.259,0,4.1-1.025,4.1-2.284S7.994.914,5.736.914s-4.1,1.024-4.1,2.284,1.838,2.284,4.1,2.284" transform="translate(122.431 190.956)" fill="#ffd947"/>
        <path id="Trazado_629982-2" data-name="Trazado 629982" d="M5.736,0C8.9,0,11.472,1.434,11.472,3.2s-2.573,3.2-5.736,3.2S0,4.96,0,3.2,2.573,0,5.736,0m0,5.481c2.259,0,4.1-1.025,4.1-2.284S8,.914,5.736.914s-4.1,1.024-4.1,2.284,1.838,2.284,4.1,2.284" transform="translate(155.209 190.956)" fill="#ffd947"/>
        <path id="Trazado_629983-2" data-name="Trazado 629983" d="M5.736,6.395C2.573,6.395,0,4.96,0,3.2S2.573,0,5.736,0s5.736,1.434,5.736,3.2-2.573,3.2-5.736,3.2m0-5.481c-2.26,0-4.1,1.025-4.1,2.284s1.838,2.284,4.1,2.284,4.1-1.024,4.1-2.284S7.995.913,5.736.913" transform="translate(43.763 0.488)" fill="#ffd947"/>
        <path id="Trazado_629984-2" data-name="Trazado 629984" d="M5.736,6.395C2.573,6.395,0,4.96,0,3.2S2.573,0,5.736,0s5.736,1.434,5.736,3.2-2.573,3.2-5.736,3.2m0-5.481c-2.26,0-4.1,1.025-4.1,2.284s1.838,2.284,4.1,2.284,4.1-1.025,4.1-2.284S7.995.913,5.736.913" transform="translate(80.639 39.313)" fill="#ffd947"/>
        <path id="Trazado_629985-2" data-name="Trazado 629985" d="M5.736,6.395C2.573,6.395,0,4.96,0,3.2S2.573,0,5.736,0s5.736,1.434,5.736,3.2-2.573,3.2-5.736,3.2m0-5.481c-2.26,0-4.1,1.025-4.1,2.284s1.838,2.284,4.1,2.284,4.1-1.025,4.1-2.284S8,.913,5.736.913" transform="translate(372.365 84.531)" fill="#ffd947"/>
      </g>
    </g>
  </g>
</svg>
